<svg width="35" height="35" viewBox="0 0 35 35" fill="none" xmlns="http://www.w3.org/2000/svg">
<path d="M0.625 7.65625C0.625 5.79145 1.36579 4.00302 2.68441 2.68441C4.00302 1.36579 5.79145 0.625 7.65625 0.625H27.3438C29.2086 0.625 30.997 1.36579 32.3156 2.68441C33.6342 4.00302 34.375 5.79145 34.375 7.65625V27.3438C34.375 29.2086 33.6342 30.997 32.3156 32.3156C30.997 33.6342 29.2086 34.375 27.3438 34.375H7.65625C5.79145 34.375 4.00302 33.6342 2.68441 32.3156C1.36579 30.997 0.625 29.2086 0.625 27.3438V7.65625ZM31.5625 17.5V7.65625C31.5625 6.53737 31.118 5.46431 30.3269 4.67314C29.5357 3.88197 28.4626 3.4375 27.3438 3.4375H7.65625C6.53737 3.4375 5.46431 3.88197 4.67314 4.67314C3.88197 5.46431 3.4375 6.53737 3.4375 7.65625V17.5H10.4688C10.8417 17.5 11.1994 17.6482 11.4631 17.9119C11.7268 18.1756 11.875 18.5333 11.875 18.9062C11.875 19.0525 11.8975 19.3619 11.965 19.7725C12.0803 20.4672 12.2884 21.1591 12.6063 21.7919C13.4725 23.53 14.9772 24.5312 17.5 24.5312C20.0228 24.5312 21.5275 23.53 22.3937 21.7919C22.7116 21.1591 22.9197 20.47 23.035 19.7725C23.1025 19.3619 23.125 19.0525 23.125 18.9062C23.1249 18.5771 23.2402 18.2584 23.4509 18.0055C23.6616 17.7527 23.9544 17.5817 24.2781 17.5225L24.5312 17.5H31.5625Z" fill="#D2D2D2"/>
</svg>
