<svg width="40" height="40" viewBox="0 0 40 40" fill="none" xmlns="http://www.w3.org/2000/svg">
<path fill-rule="evenodd" clip-rule="evenodd" d="M20 0C8.95 0 0 9.17375 0 20.5C0 29.5712 5.725 37.2331 13.675 39.9494C14.675 40.1287 15.05 39.5137 15.05 38.9756C15.05 38.4887 15.025 36.8744 15.025 35.1575C10 36.1056 8.7 33.9019 8.3 32.7487C8.075 32.1594 7.1 30.34 6.25 29.8531C5.55 29.4687 4.55 28.5206 6.225 28.495C7.8 28.4694 8.925 29.9812 9.3 30.5962C11.1 33.6969 13.975 32.8256 15.125 32.2875C15.3 30.955 15.825 30.0581 16.4 29.5456C11.95 29.0331 7.3 27.265 7.3 19.4237C7.3 17.1944 8.075 15.3494 9.35 13.9144C9.15 13.4019 8.45 11.3006 9.55 8.48187C9.55 8.48187 11.225 7.94375 15.05 10.5831C16.65 10.1219 18.35 9.89125 20.05 9.89125C21.75 9.89125 23.45 10.1219 25.05 10.5831C28.875 7.91813 30.55 8.48187 30.55 8.48187C31.65 11.3006 30.95 13.4019 30.75 13.9144C32.025 15.3494 32.8 17.1687 32.8 19.4237C32.8 27.2906 28.125 29.0331 23.675 29.5456C24.4 30.1862 25.025 31.4162 25.025 33.3381C25.025 36.08 25 38.2837 25 38.9756C25 39.5137 25.375 40.1544 26.375 39.9494C30.3453 38.5754 33.7953 35.9599 36.2394 32.4709C38.6836 28.982 39.9988 24.7952 40 20.5C40 9.17375 31.05 0 20 0Z" fill="#D2D2D2"/>
</svg>
