<svg width="27" height="45" viewBox="0 0 27 45" fill="none" xmlns="http://www.w3.org/2000/svg">
<path d="M21.9375 0C23.2802 0 24.5678 0.533369 25.5172 1.48277C26.4666 2.43217 27 3.71984 27 5.0625V39.9375C27 41.2802 26.4666 42.5678 25.5172 43.5172C24.5678 44.4666 23.2802 45 21.9375 45H5.0625C3.71984 45 2.43218 44.4666 1.48277 43.5172C0.533369 42.5678 0 41.2802 0 39.9375V5.0625C0 3.71984 0.533369 2.43217 1.48277 1.48277C2.43218 0.533369 3.71984 0 5.0625 0H21.9375ZM16.3125 36H10.6875C10.2399 36 9.81073 36.1778 9.49426 36.4943C9.17779 36.8107 9 37.2399 9 37.6875C9 38.1351 9.17779 38.5643 9.49426 38.8807C9.81073 39.1972 10.2399 39.375 10.6875 39.375H16.3125C16.7601 39.375 17.1893 39.1972 17.5057 38.8807C17.8222 38.5643 18 38.1351 18 37.6875C18 37.2399 17.8222 36.8107 17.5057 36.4943C17.1893 36.1778 16.7601 36 16.3125 36V36Z" fill="#D2D2D2"/>
</svg>
